# xmcd
# 
# Track frame offsets:
#     155
#     19140
#     40235
#     67075
#     86272
#     92002
#     104175
#     113817
#     133947
#     145265
#     163172
#     181370
#     192625
# 
# Disc length: 3346
# 
# Revision: 2
# Processed by: cddbd v1.5.2PL0 Copyright (c) Steve Scherf et al.
# Submitted via: fre:ac v1.0.27
# 
DISCID=c10d100d
DTITLE=Shuggie Otis - Inspiration Information
DYEAR=1974
DGENRE=R&B
TTITLE0=Inspiration Information
TTITLE1=Island Letter
TTITLE2=Sparkle City
TTITLE3=Aht Uh Mi Hed
TTITLE4=Happy House
TTITLE5=Rainy Day
TTITLE6=XL-30
TTITLE7=Pling!
TTITLE8=Not Available
TTITLE9=Strawberry Letter 23
TTITLE10=Sweet Thang
TTITLE11=Ice Cold Daydream
TTITLE12=Freedom Flight
EXTD=
EXTT0=
EXTT1=
EXTT2=
EXTT3=
EXTT4=
EXTT5=
EXTT6=
EXTT7=
EXTT8=
EXTT9=
EXTT10=
EXTT11=
EXTT12=
PLAYORDER=
